/* XPM */
static char *_f65d8fd16c34cb7a6237dc1bcb59d3f[] = {
/* columns rows colors chars-per-pixel */
"64 64 150 2 ",
"   c #D81D5F",
".  c #D8205F",
"X  c #D8225F",
"o  c #D9245F",
"O  c #D92D5F",
"+  c #D92E5F",
"@  c #D92F5F",
"#  c #DA305F",
"$  c #DA325F",
"%  c #DA335F",
"&  c #DA345F",
"*  c #DA355F",
"=  c #DA365F",
"-  c #DA375F",
";  c #DB385F",
":  c #DC3A5F",
">  c #DC3B5F",
",  c #DC3D5F",
"<  c #DC3E5F",
"1  c #DC3F5F",
"2  c #D81F60",
"3  c #D82160",
"4  c #D92560",
"5  c #D92760",
"6  c #D92960",
"7  c #D92A60",
"8  c #D92C60",
"9  c #D92D60",
"0  c #DC405F",
"q  c #DC415F",
"w  c #DC425F",
"e  c #DC435F",
"r  c #DC445F",
"t  c #DD445F",
"y  c #DC455F",
"u  c #DD455F",
"i  c #DD465F",
"p  c #DD475F",
"a  c #DD485F",
"s  c #DE495F",
"d  c #DE4A5F",
"f  c #DE4B5F",
"g  c #DE4C5F",
"h  c #DE4D5F",
"j  c #DF4E5F",
"k  c #DF4F5F",
"l  c #DF505F",
"z  c #DF515F",
"x  c #DF525F",
"c  c #DF535F",
"v  c #DF545F",
"b  c #DF555F",
"n  c #E0545F",
"m  c #E0555F",
"M  c #E0565F",
"N  c #E0575F",
"B  c #E0585F",
"V  c #E0595F",
"C  c #E05A5F",
"Z  c #E05B5F",
"A  c #E15B5F",
"S  c #E05C5F",
"D  c #E15C5F",
"F  c #E25D5E",
"G  c #E25C5F",
"H  c #E25D5F",
"J  c #E25E5E",
"K  c #E25F5E",
"L  c #E25E5F",
"P  c #E2605E",
"I  c #E2615E",
"U  c #E2625E",
"Y  c #E2635E",
"T  c #E3635E",
"R  c #E3645E",
"E  c #E3655E",
"W  c #E4655E",
"Q  c #E4665E",
"!  c #E4675E",
"~  c #E4685D",
"^  c #E5685D",
"/  c #E4695D",
"(  c #E5695D",
")  c #E46A5D",
"_  c #E56A5D",
"`  c #E56B5D",
"'  c #E56C5D",
"]  c #E56D5D",
"[  c #E56F5C",
"{  c #E56E5D",
"}  c #E7755B",
"|  c #E7765B",
" . c #E5705C",
".. c #E6715C",
"X. c #E6725C",
"o. c #E6735C",
"O. c #E6745C",
"+. c #E6755C",
"@. c #E7755C",
"#. c #E8755B",
"$. c #E8765B",
"%. c #E8775B",
"&. c #E8755C",
"*. c #E8785B",
"=. c #E9795B",
"-. c #E97A5A",
";. c #E97B5A",
":. c #E97A5B",
">. c #EA7C59",
",. c #EA7D59",
"<. c #EA7E59",
"1. c #EA7F59",
"2. c #E97C5A",
"3. c #EA7C5A",
"4. c #DC4060",
"5. c #DC4160",
"6. c #DC4260",
"7. c #DC4360",
"8. c #EB8257",
"9. c #EB8357",
"0. c #EB8457",
"q. c #EB8557",
"w. c #EC8656",
"e. c #EC8756",
"r. c #EC8657",
"t. c #EC8757",
"y. c #ED8955",
"u. c #ED8A55",
"i. c #ED8B55",
"p. c #EC8856",
"a. c #ED8956",
"s. c #ED8A56",
"d. c #ED8D54",
"f. c #ED8C55",
"g. c #EE8D54",
"h. c #EF8F54",
"j. c #EA8058",
"k. c #EA8158",
"l. c #EA8059",
"z. c #EA8258",
"x. c #EB8258",
"c. c #EF9053",
"v. c #EF9153",
"b. c #EF9352",
"n. c #EF9253",
"m. c #EF9054",
"M. c #F19451",
"N. c #F19551",
"B. c #F19850",
"V. c None",
/* pixels */
"V.V.V.V.V.V.V.V.V.V.V.V.V.V.V.V.V.V.V.V.V.V.V.V.V.V.V.V.V.V.V.V.V.V.V.V.V.V.V.V.V.V.V.V.V.V.V.V.V.V.V.V.V.V.V.V.V.V.V.V.V.V.V.V.",
"V.V.V.V.V.V.V.V.V.V.V.V.B.V.V.V.V.V.V.V.V.V.V.V.V.V.V.V.V.V.V.V.V.V.V.V.V.V.V.V.V.V.V.V.V.V.V.V.V.V.V.V.V.V.V.V.V.V.V.V.V.V.V.V.",
"V.V.V.V.V.V.V.V.V.V.V.V.V.M.M.V.V.V.V.V.V.V.V.V.V.V.V.V.V.V.V.V.V.V.V.V.V.V.V.V.V.V.V.V.V.V.V.V.V.V.V.V.V.V.V.V.V.V.V.V.V.V.V.V.",
"V.V.V.V.V.V.V.V.V.V.V.V.V.V.n.n.V.V.V.V.V.V.V.V.V.V.V.V.V.V.V.V.V.V.V.V.V.V.V.V.V.V.V.V.V.V.V.V.V.V.V.V.V.V.V.V.V.V.V.V.V.V.V.V.",
"V.V.V.V.V.V.V.V.V.V.V.V.V.V.n.n.d.V.V.V.V.V.V.V.V.V.V.V.V.V.V.V.V.V.V.V.V.V.V.V.V.V.V.V.V.V.V.V.V.V.V.V.V.V.V.V.V.V.V.V.V.V.V.V.",
"V.V.V.V.V.V.V.V.V.V.V.V.V.V.V.h.h.h.V.V.V.V.V.V.V.V.V.V.V.V.V.V.V.V.V.V.V.V.V.V.V.V.V.V.V.V.V.V.V.V.V.V.V.V.V.V.V.V.V.V.V.V.V.V.",
"V.V.V.V.V.V.V.V.V.V.V.V.V.V.V.V.h.u.a.V.V.V.V.h.V.V.V.V.V.V.V.V.V.V.V.V.V.V.V.V.V.V.V.V.V.V.V.V.V.V.V.V.V.V.V.V.V.V.V.V.V.V.V.V.",
"V.V.V.V.V.V.V.V.V.V.V.V.V.V.V.V.V.h.a.V.V.V.V.a.a.V.V.V.V.V.V.V.V.V.V.V.V.V.V.V.V.V.V.V.V.V.V.V.V.V.V.V.V.V.V.V.V.V.V.V.V.V.V.V.",
"V.V.V.V.V.V.V.V.V.V.V.V.V.V.V.V.V.V.a.t.V.V.V.V.t.t.V.V.V.V.V.V.V.V.V.V.V.V.V.V.V.V.V.V.V.V.V.V.V.V.V.V.V.V.V.V.V.V.V.V.V.V.V.V.",
"V.V.V.V.V.V.V.V.V.V.V.V.V.V.V.V.V.V.t.t.t.V.V.V.0.0.9.V.V.V.V.V.V.V.V.V.V.V.V.V.V.V.V.V.V.V.V.V.V.V.V.V.V.V.V.V.V.V.V.V.V.V.V.V.",
"V.V.V.V.V.V.V.V.V.V.V.V.V.V.V.V.V.V.V.x.8.V.V.V.9.9.k.V.V.V.V.V.V.V.V.V.V.V.V.V.V.V.V.V.V.V.V.V.V.V.V.V.V.V.V.V.V.V.V.V.V.V.V.V.",
"V.V.V.V.V.V.V.V.V.V.V.V.V.V.V.V.V.V.V.V.k.1.V.V.k.k.1.V.V.V.V.V.*.V.V.V.V.V.V.V.V.V.V.V.V.V.V.V.V.V.V.V.V.V.V.V.V.V.V.V.V.V.V.V.",
"V.V.V.V.V.V.V.V.V.V.V.V.V.V.V.V.V.V.V.V.V.<.V.V.V.1.1.*.V.V.V.V.*.*.V.V.V.V.V.V.V.V.V.V.V.V.V.V.V.V.V.V.V.V.V.V.V.V.V.V.V.V.V.V.",
"V.V.V.V.V.V.V.V.V.V.V.V.V.V.V.V.V.V.V.V.V.<.<.V.V.1.1.*.V.V.V.*.*.%.%.V.V.V.V.V.V.V.V.V.V.V.V.V.V.V.V.V.V.V.V.V.V.V.V.V.V.V.V.V.",
"V.V.V.V.V.V.V.V.V.V.V.V.V.V.V.V.V.V.V.V.V.V.*.*.V.1.*.*.V.V.V.@.%.@.@.@.V.V.V.V.V.V.V.V.V.V.V.V.V.V.V.V.V.V.V.V.V.V.V.V.V.V.V.V.",
"V.V.V.V.V.V.V.V.V.V.V.V.V.V.V.V.V.V.V.V.V.V.V.*.V.V.*.*.V.V.V.@.........V.V.V.V.V.V.V.V.V.V.V.V.V.V.V.V.V.V.V.V.V.V.V.V.V.V.V.V.",
"V.V.V.V.V.V.V.V.V.V.V.V.V.V.V.V.V.V.V.V.V.V.V.} V.V.&.@.@.V.V.@.........V.V.V.V.V.V.V.V.V.V.V.V.V.V.V.V.V.V.V.V.V.V.V.V.V.V.V.V.",
"V.V.V.V.V.V.V.V.V.V.V.V.V.V.V.V.V.V.V.V.V.V.V.V.@.V.@.....V.V.......' ' V.V.V.V.T T V.V.V.V.V.V.V.V.V.V.V.V.V.V.V.V.V.V.V.V.V.V.",
"V.V.V.V.V.V.V.V.V.V.V.V.V.V.V.V.V.V.V.V.V.V.V.V.V.V.......V.V.'  .{ ' ' V.V.V.T T K T V.V.V.V.V.V.V.V.V.V.V.V.V.V.V.V.V.V.V.V.V.",
"V.V.V.V.V.V.V.V.V.V.V.V.V.V.V.V.V.V.V.V.V.V.V.V.V.V.V...' V.V...) { ' / V.V.V.K K K K K V.V.V.V.V.V.V.V.V.V.V.V.V.V.V.V.V.V.V.V.",
"V.V.V.V.V.V.V.V.V.V.V.V.V.V.V.V.V.V.V.V.V.V.V.V.V.V.V.' ' V.V.' / / / / V.V.T K K K H H V.V.V.V.V.V.V.V.V.V.V.V.V.V.V.V.V.V.V.V.",
"V.V.V.V.V.V.V.V.V.V.V.V.V.V.V.V.V.V.V.V.V.V.V.V.V.V.V./ / V.V./ / / / V.V.V.K K K H K H V.V.V.V.V.V.V.V.V.V.V.V.V.V.V.V.V.V.V.V.",
"V.V.V.V.V.V.V.V.V.V.V.V.V.V.V.V.V.V.V.V./ / V.V.V.V.V./ / V.V./ / W / V.V.T K H H H A A V.V.V.V.V.V.V.V.V.V.V.V.V.V.V.V.V.V.V.V.",
"V.V.V.V.V.V.V.V.V.V.V.V.V.V.V.V.V.V.' / / / / W V.V.V.W W V./ / W W W V.V.H H A H S C V.V.V.V.d d V.V.V.V.V.V.V.V.V.V.V.V.V.V.V.",
"V.V.V.V.V.V.V.V.V.V.V.V.V.V.V.V.V./ _ / / / V.V.V.V.V.V.T V.W W W W V.V.H H H A V V K V.V.V.d d s s V.V.V.V.V.V.V.V.V.V.V.V.V.V.",
"V.V.V.V.V.V.V.V.V.V.V.V.V.V.V.V.V./ W / W V.V.V.V.V.V.V.T V.W Y Y Y V.V.H A C C V V V.V.V.d d d d y d V.V.V.V.V.V.V.V.V.V.V.V.V.",
"V.V.V.V.V.V.V.V.V.V.V.V.V.V.V.V./ / / W V.V.V.V.V.V.V.V.K V.T T T V.V.A C C C C V V.V.V.d d d d y d y d V.V.V.V.V.V.V.V.V.V.V.V.",
"V.V.V.V.V.V.V.V.V.V.V.V.V.V.V.V.W W W V.V.V.V.V.V.V.V.V.V.V.T K K V.A C C C C N V.V.V.d 7.d y y y y y y y V.V.V.V.V.V.V.V.V.V.V.",
"V.V.V.V.V.V.V.V.V.V.V.V.V.V.V.W W W V.V.V.V.V.V.V.V.V.V.V.T T K V.V.V V N C N V.V.V.s s i i i i y i i y y V.V.V.V.V.V.V.V.V.V.V.",
"V.V.V.V.V.V.V.V.V.V.V.V.V.V.V.Y W T V.V.V.V.V.V.V.V.V.V.V.K H H V.V V V N N V.V.V.i y i i i i i i y y e e V.V.V.V.V.V.V.V.V.V.V.",
"V.V.V.V.V.V.V.V.V.V.V.V.V.V.T T T V.V.V.V.V.V.V.V.V.V.V.V.H H V.M V M M M V.V.7.i i i i i i i e e y e V.V.V.V.V.V.V.V.V.V.V.V.V.",
"V.V.V.V.V.V.V.V.V.V.V.V.V.V.T K K V.V.V.V.V.V.V.V.V.V.V.V.A V.V.M M M M V.V.y d i i i i y e y e e e V.V.V.V.V.V.V.V.V.V.V.V.V.V.",
"V.V.V.V.V.V.V.V.V.V.V.V.V.V.K K K V.V.V.V.V.V.V.V.V.V.V.V V V.M M M M V.V.y i i i i y y e e e e V.V.V.V.V.V.V.V.V.V.V.V.V.V.V.V.",
"V.V.V.V.V.V.V.V.V.V.V.V.V.K K K V.V.V.V.V.V.V.V.V.V.V.V.M V.M M M v V.V.y y i i y e e e 5.e 5.V.V.V.V.V.V.V.V.V.V.V.V.V.V.V.V.V.",
"V.V.V.V.V.V.V.V.V.V.V.V.V.H K H V.V.V.V.V.V.V.V.V.V.V.V.V.V.v v c V.V.e y y e y e e 5.5.5.V.V.V.V.V.V.V.V.V.V.V.V.V.V.V.V.V.V.V.",
"V.V.V.V.V.V.V.V.V.V.V.V.V.H V V V.V.V.V.V.V.V.V.V.V.V.V.V.c c v V.V.y y y y e y 5.5.e e V.V.V.V.V.V.V.V.V.V.V.V.V.V.V.V.V.V.V.V.",
"V.V.V.V.V.V.V.V.V.V.V.V.V.V V V.V.V.V.V.V.V.V.V.V.V.V.V.n n c V.i e y e e y e 5.e 1 V.V.V.V.V.V.V.V.V.V.V.V.V.V.V.V.V.V.V.V.V.V.",
"V.V.V.V.V.V.V.V.V.V.V.V.V M V V.V.V.V.V.V.V.V.V.V.V.V.c n V.V.y e y e e 5.5.e 1 V.V.V.V.V.V.V.V.V.V.V.V.V.V.V.V.V.V.V.V.V.V.V.V.",
"V.V.V.V.V.V.V.V.V.V.V.V.M M M V.V.V.V.V.V.V.V.V.V.V.c c V.V.e e e e 5.5.1 e V.V.V.V.V.V.V.V.V.V.V.V.V.V.V.V.V.V.V.V.V.V.V.V.V.V.",
"V.V.V.V.V.V.V.V.V.V.V.V.M v v V.V.V.V.V.V.V.V.V.V.c c V.V.e e e 5.5.e 1 1 V.V.V.V.V.V.V.V.V.V.V.V.V.V.V.V.V.V.V.V.V.V.V.V.V.V.V.",
"V.V.V.V.V.V.V.V.V.V.V.V.M c c V.V.V.V.V.V.V.V.V.V.n V.V.e e 5.5.e e 1 V.V.V.V.V.V.V.V.V.V.V.V.V.V.V.V.V.V.V.V.V.V.V.V.V.V.V.V.V.",
"V.V.V.V.V.V.V.V.V.V.V.V.c c n V.V.V.V.V.V.V.V.V.V.V.e e 4.e 1 e 1 V.V.V.V.V.V.V.V.V.V.V.V.V.V.V.V.V.V.V.V.V.V.V.V.V.V.V.V.V.V.V.",
"V.V.V.V.V.V.V.V.V.V.V.V.g k V.V.V.V.V.V.V.V.V.V.V.5.5.1 1 e 1 V.V.V.V.V.V.V.V.V.V.V.V.V.V.V.V.V.V.V.V.V.V.V.V.V.V.V.V.V.V.V.V.V.",
"V.V.V.V.V.V.V.V.V.V.V.V.k k V.V.V.V.V.V.V.V.V.V.5.1 1 e 1 V.V.V.V.V.V.V.V.V.V.V.V.V.V.V.V.V.V.V.V.V.V.V.V.V.V.V.V.V.V.V.V.V.V.V.",
"V.V.V.V.V.V.V.V.V.V.V.V.g g V.V.V.V.V.V.V.V.4.1 e 1 1 V.V.V.V.V.V.V.V.V.V.V.V.V.V.V.V.V.V.V.V.V.V.V.V.V.V.V.V.V.V.V.V.V.V.V.V.V.",
"V.V.V.V.V.V.V.V.V.V.V.V.g d V.V.V.V.V.V.V.e 1 e 1 V.V.V.V.V.V.V.V.V.V.V.V.V.V.V.V.V.V.V.V.V.V.V.V.V.V.V.V.V.V.V.V.V.V.V.V.V.V.V.",
"V.V.V.V.V.V.V.V.V.V.V.V.d y V.V.V.V.V.1 1 e 1 V.V.V.V.V.V.V.V.V.V.V.V.V.V.V.V.V.V.V.V.V.V.V.V.V.V.V.V.V.V.V.V.V.V.V.V.V.V.V.V.V.",
"V.V.V.V.V.V.V.V.V.V.V.V.y d V.V.V.V.e 1 1 V.V.V.V.V.V.V.V.V.V.V.V.V.V.V.V.V.V.V.V.V.V.V.V.V.V.V.V.V.V.V.V.V.V.V.V.V.V.V.V.V.V.V.",
"V.V.V.V.V.V.V.V.V.V.V.V.7.y V.V.e 1 1 V.V.V.V.V.V.V.V.V.V.V.V.V.V.V.V.V.V.V.V.V.V.V.V.V.V.V.V.V.V.V.V.V.V.V.V.V.V.V.V.V.V.V.V.V.",
"V.V.V.V.V.V.V.V.V.V.V.V.y e V.e 1 V.V.V.V.V.V.V.V.V.V.V.V.V.V.V.V.V.V.V.V.V.V.V.V.V.V.V.V.V.V.V.V.V.V.V.V.V.V.V.V.V.V.V.V.V.V.V.",
"V.V.V.V.V.V.V.V.V.V.V.V.1 1 1 V.V.V.V.V.V.V.V.V.V.V.V.V.V.V.V.V.V.V.V.V.V.V.V.V.V.V.V.V.V.V.V.V.V.V.V.V.V.V.V.V.V.V.V.V.V.V.V.V.",
"V.V.V.V.V.V.V.V.V.V.V.V.1 1 V.V.V.V.V.V.V.V.V.V.V.V.V.V.V.V.V.V.V.V.V.V.V.V.V.V.V.V.V.V.V.V.V.V.V.V.V.V.V.V.V.V.V.V.V.V.V.V.V.V.",
"V.V.V.V.V.V.V.V.V.V.V.V.: : : V.V.V.V.V.V.V.V.V.V.V.V.V.V.V.V.V.V.V.V.V.V.V.V.V.V.V.V.V.V.V.V.V.V.V.V.V.V.V.V.V.V.V.V.V.V.V.V.V.",
"V.V.V.V.V.V.V.V.V.V.V.V.; = = V.V.V.V.V.V.V.V.V.V.V.V.V.V.V.V.V.V.V.V.V.V.V.V.V.V.V.V.V.V.V.V.V.V.V.V.V.V.V.V.V.V.V.V.V.V.V.V.V.",
"V.V.V.V.V.V.V.V.V.V.V.V.= = % V.V.V.V.V.V.V.V.V.V.V.V.V.V.V.V.V.V.V.V.V.V.V.V.V.V.V.V.V.V.V.V.V.V.V.V.V.V.V.V.V.V.V.V.V.V.V.V.V.",
"V.V.V.V.V.V.V.V.V.V.V.V.V.% % V.V.V.V.V.V.V.V.V.V.V.V.V.V.V.V.V.V.V.V.V.V.V.V.V.V.V.V.V.V.V.V.V.V.V.V.V.V.V.V.V.V.V.V.V.V.V.V.V.",
"V.V.V.V.V.V.V.V.V.V.V.V.V.% + + V.V.V.V.V.V.V.V.V.V.V.V.V.V.V.V.V.V.V.V.V.V.V.V.V.V.V.V.V.V.V.V.V.V.V.V.V.V.V.V.V.V.V.V.V.V.V.V.",
"V.V.V.V.V.V.V.V.V.V.V.V.V.+ 8 7 V.V.V.V.V.V.V.. V.V.V.V.V.V.V.V.V.V.V.V.V.V.V.V.V.V.V.V.V.V.V.V.V.V.V.V.V.V.V.V.V.V.V.V.V.V.V.V.",
"V.V.V.V.V.V.V.V.V.V.V.V.V.V.7 7 V.V.V.V.V.V.V.  V.V.V.V.V.V.V.V.V.V.V.V.V.V.V.V.V.V.V.V.V.V.V.V.V.V.V.V.V.V.V.V.V.V.V.V.V.V.V.V.",
"V.V.V.V.V.V.V.V.V.V.V.V.V.V.4 4 o V.V.V.V.V.  V.V.V.V.V.V.V.V.V.V.V.V.V.V.V.V.V.V.V.V.V.V.V.V.V.V.V.V.V.V.V.V.V.V.V.V.V.V.V.V.V.",
"V.V.V.V.V.V.V.V.V.V.V.V.V.V.V.. 3 2         V.V.V.V.V.V.V.V.V.V.V.V.V.V.V.V.V.V.V.V.V.V.V.V.V.V.V.V.V.V.V.V.V.V.V.V.V.V.V.V.V.V.",
"V.V.V.V.V.V.V.V.V.V.V.V.V.V.V.V.          V.V.V.V.V.V.V.V.V.V.V.V.V.V.V.V.V.V.V.V.V.V.V.V.V.V.V.V.V.V.V.V.V.V.V.V.V.V.V.V.V.V.V.",
"V.V.V.V.V.V.V.V.V.V.V.V.V.V.V.V.V.      V.V.V.V.V.V.V.V.V.V.V.V.V.V.V.V.V.V.V.V.V.V.V.V.V.V.V.V.V.V.V.V.V.V.V.V.V.V.V.V.V.V.V.V.",
"V.V.V.V.V.V.V.V.V.V.V.V.V.V.V.V.V.V.V.V.V.V.V.V.V.V.V.V.V.V.V.V.V.V.V.V.V.V.V.V.V.V.V.V.V.V.V.V.V.V.V.V.V.V.V.V.V.V.V.V.V.V.V.V."
};
