/* XPM */
static char *_00995b7c0c34536f71507c50cabd3fa[] = {
/* columns rows colors chars-per-pixel */
"16 16 38 1 ",
"  c #D81D5F",
". c #DB355F",
"X c #DC3F5F",
"o c #D92760",
"O c #DC405F",
"+ c #DC415F",
"@ c #DC425F",
"# c #DC435F",
"$ c #DD435F",
"% c #DC445F",
"& c #DD455F",
"* c #DD465F",
"= c #DE475F",
"- c #DD495F",
"; c #DE4A5F",
": c #DE4C5F",
"> c #DF515F",
", c #DF545F",
"< c #E0565F",
"1 c #E0575F",
"2 c #E0595F",
"3 c #E15A5F",
"4 c #E15B5F",
"5 c #E15D5F",
"6 c #E25D5F",
"7 c #E25E5F",
"8 c #E3625E",
"9 c #E3645E",
"0 c #E4675E",
"q c #E4685D",
"w c #E56C5C",
"e c #E66F5C",
"r c #E6715C",
"t c #E7745C",
"y c #E8775B",
"u c #E8795B",
"i c #EB8258",
"p c None",
/* pixels */
"pppppppppppppppp",
"pppppppppppppppp",
"pppppipppppppppp",
"ppppppuytppppppp",
"ppppppreeppppppp",
"pppppppq873ppppp",
"pppp0pp872p**ppp",
"ppp8ppp3,:**#ppp",
"ppp7ppp<:+#ppppp",
"pp1pppp*#ppppppp",
"pp>ppp##pppppppp",
"pp:ppXpppppppppp",
"pp#ppppppppppppp",
"pp.ppppppppppppp",
"pppopppppppppppp",
"pppp ppppppppppp"
};
