/* XPM */
static char *_18debe3523942e5cc9d9d62bbb352c3[] = {
/* columns rows colors chars-per-pixel */
"32 32 102 2 ",
"   c #D81D5F",
".  c #D81F5F",
"X  c #DA315F",
"o  c #DA345F",
"O  c #DB395F",
"+  c #DC3D5F",
"@  c #DC3E5F",
"#  c #DC3F5F",
"$  c #D92360",
"%  c #D92A60",
"&  c #D92C60",
"*  c #DC405F",
"=  c #DC415F",
"-  c #DC425F",
";  c #DD425F",
":  c #DC435F",
">  c #DC445F",
",  c #DC455F",
"<  c #DD455F",
"1  c #DD465F",
"2  c #DD475F",
"3  c #DC485F",
"4  c #DD485F",
"5  c #DD495F",
"6  c #DE485F",
"7  c #DE495F",
"8  c #DE4A5F",
"9  c #DF4D5F",
"0  c #DE505F",
"q  c #DF505F",
"w  c #DF515F",
"e  c #DF525F",
"r  c #DF535F",
"t  c #DF545F",
"y  c #DF595F",
"u  c #E0555F",
"i  c #E0565F",
"p  c #E0575F",
"a  c #E0585F",
"s  c #E0595F",
"d  c #E05A5F",
"f  c #E05B5F",
"g  c #E15B5F",
"h  c #E15D5F",
"j  c #E25C5E",
"k  c #E25C5F",
"l  c #E25D5F",
"z  c #E15E5F",
"x  c #E25E5E",
"c  c #E25F5E",
"v  c #E25E5F",
"b  c #E25F5F",
"n  c #E2605E",
"m  c #E2615E",
"M  c #E2605F",
"N  c #E2625E",
"B  c #E2635E",
"V  c #E2645E",
"C  c #E3645E",
"Z  c #E3655E",
"A  c #E4665E",
"S  c #E4675E",
"D  c #E4685D",
"F  c #E4695D",
"G  c #E56A5D",
"H  c #E56B5D",
"J  c #E4685E",
"K  c #E5685E",
"L  c #E56C5D",
"P  c #E56F5C",
"I  c #E56E5D",
"U  c #E56F5D",
"Y  c #E66F5C",
"T  c #E7745B",
"R  c #E7765B",
"E  c #E6705C",
"W  c #E6725C",
"Q  c #E6735C",
"!  c #E7745C",
"~  c #E8785B",
"^  c #E8795B",
"/  c #E97B5B",
"(  c #EA7B5A",
")  c #EA7D59",
"_  c #EA7E59",
"`  c #EA7F59",
"'  c #DC4060",
"]  c #DC4160",
"[  c #DC4260",
"{  c #DC4360",
"}  c #EB8557",
"|  c #EC8757",
" . c #EC8956",
".. c #ED8956",
"X. c #ED8C55",
"o. c #EE8D54",
"O. c #EA8158",
"+. c #EB8458",
"@. c #F09152",
"#. c #F09352",
"$. c #F19551",
"%. c None",
/* pixels */
"%.%.%.%.%.%.%.$.%.%.%.%.%.%.%.%.%.%.%.%.%.%.%.%.%.%.%.%.%.%.%.%.",
"%.%.%.%.%.%.%.#.@.%.%.%.%.%.%.%.%.%.%.%.%.%.%.%.%.%.%.%.%.%.%.%.",
"%.%.%.%.%.%.%.%.o.o.%.%.%.%.%.%.%.%.%.%.%.%.%.%.%.%.%.%.%.%.%.%.",
"%.%.%.%.%.%.%.%.%...} %.....%.%.%.%.%.%.%.%.%.%.%.%.%.%.%.%.%.%.",
"%.%.%.%.%.%.%.%.%.%.} %.%.} %.%.%.%.%.%.%.%.%.%.%.%.%.%.%.%.%.%.",
"%.%.%.%.%.%.%.%.%.%.%.` %.O.` %.%.^ %.%.%.%.%.%.%.%.%.%.%.%.%.%.",
"%.%.%.%.%.%.%.%.%.%.%.( %.` ^ %.%.~ Q %.%.%.%.%.%.%.%.%.%.%.%.%.",
"%.%.%.%.%.%.%.%.%.%.%.%.%.~ ^ %.%.E E %.%.%.%.%.%.%.%.%.%.%.%.%.",
"%.%.%.%.%.%.%.%.%.%.%.%.%.Q Q %.E E E %.%.m %.%.%.%.%.%.%.%.%.%.",
"%.%.%.%.%.%.%.%.%.%.%.%.%.%.E %.L L L %.m m m %.%.%.%.%.%.%.%.%.",
"%.%.%.%.%.%.%.%.%.%.%.%.%.%.L %.L D D %.m k l %.%.%.%.%.%.%.%.%.",
"%.%.%.%.%.%.%.%.%.%.D D %.%.%.%.D J %.M k k l %.%.%.%.%.%.%.%.%.",
"%.%.%.%.%.%.%.%.%.D S %.%.%.%.C Z C %.k d d %.%.5 5 5 %.%.%.%.%.",
"%.%.%.%.%.%.%.%.D D %.%.%.%.%.M M %.d d d %.%.6 5 5 { %.%.%.%.%.",
"%.%.%.%.%.%.%.%.C C %.%.%.%.%.k k d d i %.%.6 1 { { { %.%.%.%.%.",
"%.%.%.%.%.%.%.%.M %.%.%.%.%.%.k d p p %.1 1 1 1 1 1 %.%.%.%.%.%.",
"%.%.%.%.%.%.%.l l %.%.%.%.%.%.%.p p %.{ 1 = 1 1 = %.%.%.%.%.%.%.",
"%.%.%.%.%.%.%.d %.%.%.%.%.%.%.i r %.1 { 1 = [ %.%.%.%.%.%.%.%.%.",
"%.%.%.%.%.%.%.d %.%.%.%.%.%.%.r %.= { { { # %.%.%.%.%.%.%.%.%.%.",
"%.%.%.%.%.%.%.i %.%.%.%.%.%.9 1 { { = = %.%.%.%.%.%.%.%.%.%.%.%.",
"%.%.%.%.%.%.t r %.%.%.%.%.%.1 { = = %.%.%.%.%.%.%.%.%.%.%.%.%.%.",
"%.%.%.%.%.%.r r %.%.%.%.%.= { # %.%.%.%.%.%.%.%.%.%.%.%.%.%.%.%.",
"%.%.%.%.%.%.9 9 %.%.%.%.{ # %.%.%.%.%.%.%.%.%.%.%.%.%.%.%.%.%.%.",
"%.%.%.%.%.%.6 6 %.%.{ # %.%.%.%.%.%.%.%.%.%.%.%.%.%.%.%.%.%.%.%.",
"%.%.%.%.%.%.1 1 %.# %.%.%.%.%.%.%.%.%.%.%.%.%.%.%.%.%.%.%.%.%.%.",
"%.%.%.%.%.%.= # %.%.%.%.%.%.%.%.%.%.%.%.%.%.%.%.%.%.%.%.%.%.%.%.",
"%.%.%.%.%.%.# O %.%.%.%.%.%.%.%.%.%.%.%.%.%.%.%.%.%.%.%.%.%.%.%.",
"%.%.%.%.%.%.%.X %.%.%.%.%.%.%.%.%.%.%.%.%.%.%.%.%.%.%.%.%.%.%.%.",
"%.%.%.%.%.%.%.X %.%.%.%.%.%.%.%.%.%.%.%.%.%.%.%.%.%.%.%.%.%.%.%.",
"%.%.%.%.%.%.%.& & %.%.%.%.%.%.%.%.%.%.%.%.%.%.%.%.%.%.%.%.%.%.%.",
"%.%.%.%.%.%.%.%.$   %.  %.%.%.%.%.%.%.%.%.%.%.%.%.%.%.%.%.%.%.%.",
"%.%.%.%.%.%.%.%.%.    %.%.%.%.%.%.%.%.%.%.%.%.%.%.%.%.%.%.%.%.%."
};
